# xmcd
#
# Track frame offsets:
#	188
#	21333
#	36508
#	54208
#	70415
#	86620
#	99465
#	111653
#	122875
#	140188
#
# Disc length: 2092 seconds
#
# Revision: 0
# Processed by: cddbd v1.5.2PL0 Copyright (c) Steve Scherf et al.
# Submitted via: EasyCDDAExtractor 16.0.1.1
#
DISCID=97082a0a
DTITLE=Clint Black - The Hard Way
DYEAR=1992
DGENRE=Country
TTITLE0=We Tell Ourselves
TTITLE1=The Hard Way
TTITLE2=Something To Cry About
TTITLE3=Buying Tiime
TTITLE4=When My Ship Comes In
TTITLE5=A Woman Has Her Way
TTITLE6=There Never Was A Train
TTITLE7=The Good Old Days
TTITLE8=Burn One Down
TTITLE9=Wake Up Yesterday
EXTD=
EXTT0=
EXTT1=
EXTT2=
EXTT3=
EXTT4=
EXTT5=
EXTT6=
EXTT7=
EXTT8=
EXTT9=
PLAYORDER=
